<?xml version="1.0" encoding="UTF-8" standalone="no"?>
<!-- Created with Inkscape (http://www.inkscape.org/) -->

<svg
   xmlns:dc="http://purl.org/dc/elements/1.1/"
   xmlns:cc="http://creativecommons.org/ns#"
   xmlns:rdf="http://www.w3.org/1999/02/22-rdf-syntax-ns#"
   xmlns:svg="http://www.w3.org/2000/svg"
   xmlns="http://www.w3.org/2000/svg"
   xmlns:sodipodi="http://sodipodi.sourceforge.net/DTD/sodipodi-0.dtd"
   xmlns:inkscape="http://www.inkscape.org/namespaces/inkscape"
   width="683.54053mm"
   height="285.75009mm"
   viewBox="0 0 683.54053 285.75009"
   version="1.1"
   id="svg8"
   inkscape:version="0.92.4 5da689c313, 2019-01-14"
   sodipodi:docname="gravity_magnetic_surveys.svg"
   inkscape:export-filename="/home/santi/documentos/geo/2020/egu2020/slides-figs/gravity_magnetic_surveys.svg.png"
   inkscape:export-xdpi="95.999969"
   inkscape:export-ydpi="95.999969">
  <defs
     id="defs2" />
  <sodipodi:namedview
     id="base"
     pagecolor="#ffffff"
     bordercolor="#666666"
     borderopacity="1.0"
     inkscape:pageopacity="0.0"
     inkscape:pageshadow="2"
     inkscape:zoom="1.4142136"
     inkscape:cx="1580.4592"
     inkscape:cy="417.99479"
     inkscape:document-units="px"
     inkscape:current-layer="layer1"
     showgrid="false"
     inkscape:window-width="1920"
     inkscape:window-height="1024"
     inkscape:window-x="1366"
     inkscape:window-y="28"
     inkscape:window-maximized="1"
     fit-margin-top="0"
     fit-margin-left="0"
     fit-margin-right="0"
     fit-margin-bottom="0" />
  <metadata
     id="metadata5">
    <rdf:RDF>
      <cc:Work
         rdf:about="">
        <dc:format>image/svg+xml</dc:format>
        <dc:type
           rdf:resource="http://purl.org/dc/dcmitype/StillImage" />
        <dc:title></dc:title>
      </cc:Work>
    </rdf:RDF>
  </metadata>
  <g
     inkscape:label="Capa 1"
     inkscape:groupmode="layer"
     id="layer1"
     transform="translate(713.87369,21.392871)">
    <path
       style="fill:#becfc7;fill-opacity:1;stroke:none;stroke-width:1.28270125;stroke-linecap:butt;stroke-linejoin:miter;stroke-miterlimit:4;stroke-dasharray:none;stroke-opacity:1"
       d="m -713.87369,240.26882 c 0,0 5.74896,-6.70714 9.96487,-7.47368 4.21593,-0.76653 6.3239,0.57491 7.85694,0.57491 1.53307,0 13.22268,-0.38327 16.48042,-1.1498 3.25776,-0.76653 10.92306,-2.2996 17.24693,-6.32388 6.3239,-4.02429 9.77327,-6.89877 13.98918,-8.2402 4.21593,-1.34144 13.79756,-3.25777 17.43858,-5.17408 3.64101,-1.91634 22.80427,-19.16328 23.95407,-20.88798 1.14979,-1.72469 4.59919,-5.74898 10.15651,-7.0904 5.55736,-1.34144 7.85697,-2.10797 8.62348,-3.25777 0.76652,-1.14979 0.56638,-2.75906 1.24391,-3.23332 0.67753,-0.47426 3.52313,-1.08405 4.26841,-1.08405 0.74526,0 3.45535,-0.0677 4.81041,-1.15178 1.35506,-1.08404 3.21824,-2.64234 3.828,-2.81173 0.60976,-0.16938 5.99607,-0.7114 7.11399,-1.49055 1.11793,-0.77916 2.43911,-3.4215 3.82801,-3.82801 1.38892,-0.40652 5.89445,0.7114 6.9785,-0.40652 1.08406,-1.11791 2.27891,-4.34286 4.09943,-4.86987 1.8205,-0.52698 4.6471,1.054 6.80296,0.95817 2.15586,-0.0958 2.85135,-1.37298 4.20637,-1.98275 1.35506,-0.60977 12.05993,-1.76157 13.48272,-2.10033 1.42281,-0.33875 10.56939,-0.13551 11.51791,-0.47426 0.94855,-0.33876 4.53943,-2.91336 6.50424,-3.45537 1.96481,-0.54202 12.19541,-0.27101 16.0573,-0.81304 3.8619,-0.54201 13.14396,-2.43908 14.56676,-3.45537 1.4228,-1.01628 1.82931,-2.43908 3.31988,-3.1166 1.49054,-0.67753 27.84623,-5.48795 27.84623,-5.48795 0,0 2.91333,-2.57458 4.8104,-3.31986 1.89706,-0.74529 9.41757,-2.64234 11.3824,-3.72639 1.96482,-1.08403 4.81041,-3.25211 6.77523,-4.06514 1.96481,-0.81303 8.74005,-3.38762 11.6534,-6.23322 2.91335,-2.84561 5.69121,-7.11401 7.58827,-7.79152 1.89707,-0.67754 8.13028,-1.01629 11.58564,-3.38763 3.45539,-2.37133 5.62345,1.69381 7.72378,2.77785 2.10033,1.08404 6.09771,1.62606 8.40129,3.18437 2.30358,1.55829 5.6912,4.74266 7.04626,6.77523 1.35501,2.03258 5.48793,3.59087 6.84295,3.99739 1.35506,0.40651 3.79416,2.23584 4.40392,3.04885 0.60978,0.81304 2.50683,2.64236 3.92963,2.91336 1.42279,0.27102 5.69119,2.30359 7.72378,4.74267 0,0 0.88077,1.82932 2.84559,1.82932 1.96482,0 6.77524,2.64234 6.77524,2.64234 0,0 10.02735,7.52052 13.00845,7.72378 2.9811,0.20326 2.84559,-0.67753 4.2684,-0.13551 1.4228,0.54202 6.70748,4.87818 7.79151,5.62345 1.08405,0.74528 7.18175,4.26839 9.07883,4.33615 1.89706,0.0677 1.76155,-0.88079 2.71009,0 0.94853,0.88078 2.57459,2.64234 3.11661,3.79414 0.54203,1.15178 4.13289,7.92702 4.94593,8.6723 0.81301,0.74528 6.09771,6.16547 7.2495,6.91075 1.15178,0.74527 9.21431,6.09771 10.90812,6.91074 1.69381,0.81303 6.23322,2.91336 7.38501,4.1329 1.15178,1.21954 6.02997,5.48794 7.385,6.43648 1.35505,0.94853 5.5557,4.4039 6.63975,5.28468 1.08402,0.88079 6.91073,4.67492 8.40129,5.35244 1.49054,0.67754 2.16807,1.49055 3.1166,5.21693 0.94853,3.72639 4.2684,4.53942 5.5557,5.35245 1.28729,0.81303 4.94593,3.04886 6.0977,6.84299 v 0 c 0,0 2.72366,-0.43362 4.33616,0.0406 1.61251,0.47426 3.69928,2.65589 5.69119,3.03531 1.99193,0.37942 4.55297,-0.66397 6.45003,-0.37942 1.89706,0.28457 6.35517,4.36326 9.76988,4.74268 3.41473,0.37941 9.58019,1.32794 12.14124,1.51765 2.56104,0.1897 11.19268,0 12.42577,-0.37943 1.23309,-0.3794 4.17356,-0.75881 5.12208,-0.56911 0.94853,0.18971 5.69121,3.31987 7.30371,3.79413 1.61251,0.47427 5.12209,0.37942 6.45003,0.0948 1.32795,-0.28455 3.60443,-1.13824 4.4581,-0.47427 0.85369,0.66398 2.65591,2.37134 3.41473,2.65589 0.75881,0.28457 8.5368,3.41473 10.52871,3.50958 1.99193,0.0948 9.20077,-4.36325 10.81328,-5.02723 1.61251,-0.66397 5.78606,-1.13824 9.20078,0.0948 3.41471,1.23309 6.82943,3.60443 7.4934,4.07869 0.66398,0.47428 9.20077,3.50957 11.66696,3.41473 2.46618,-0.0948 5.691194,0.28455 7.777971,1.04339 2.086765,0.75883 8.726495,1.99191 13.279462,1.99191 4.552954,0 10.908122,1.99192 13.184611,1.99192 2.276477,0 14.891976,-1.99192 18.306679,-2.8456 3.414728,-0.85368 20.393468,-3.31986 20.393468,-3.31986 v 0 17.06115 H -713.87369 Z"
       id="path826"
       inkscape:connector-curvature="0"
       sodipodi:nodetypes="ccsccsccssssccscccsccssscccccscsccscccccscccscccsccccccsscccsccscsccscccccccsssccccc"
       inkscape:export-xdpi="95.999969"
       inkscape:export-ydpi="95.999969" />
    <path
       style="fill:#fa9600;fill-opacity:1;stroke:none;stroke-width:0.09510856px;stroke-linecap:butt;stroke-linejoin:miter;stroke-opacity:1"
       d="m -79.805091,251.84613 -11.13428,-17.4845 h 22.268561 z"
       id="path842"
       inkscape:connector-curvature="0"
       sodipodi:nodetypes="cccc"
       inkscape:export-xdpi="95.999969"
       inkscape:export-ydpi="95.999969" />
    <path
       style="fill:#fa9600;fill-opacity:1;stroke:none;stroke-width:0.09510856px;stroke-linecap:butt;stroke-linejoin:miter;stroke-opacity:1"
       d="m -165.55248,239.79699 -11.13428,-17.4845 h 22.26856 z"
       id="path846"
       inkscape:connector-curvature="0"
       sodipodi:nodetypes="cccc"
       inkscape:export-xdpi="95.999969"
       inkscape:export-ydpi="95.999969" />
    <path
       sodipodi:nodetypes="cccc"
       inkscape:connector-curvature="0"
       id="path848"
       d="m -250.54104,207.83421 -11.13428,-17.48449 h 22.26856 z"
       style="fill:#fa9600;fill-opacity:1;stroke:none;stroke-width:0.09510856px;stroke-linecap:butt;stroke-linejoin:miter;stroke-opacity:1"
       inkscape:export-xdpi="95.999969"
       inkscape:export-ydpi="95.999969" />
    <path
       sodipodi:nodetypes="cccc"
       inkscape:connector-curvature="0"
       id="path852"
       d="m -306.08527,163.36455 -11.13428,-17.4845 h 22.26856 z"
       style="fill:#fa9600;fill-opacity:1;stroke:none;stroke-width:0.09510856px;stroke-linecap:butt;stroke-linejoin:miter;stroke-opacity:1"
       inkscape:export-xdpi="95.999969"
       inkscape:export-ydpi="95.999969" />
    <path
       style="fill:#fa9600;fill-opacity:1;stroke:none;stroke-width:0.09510856px;stroke-linecap:butt;stroke-linejoin:miter;stroke-opacity:1"
       d="m -391.83266,112.52318 -11.13429,-17.484499 h 22.26857 z"
       id="path854"
       inkscape:connector-curvature="0"
       sodipodi:nodetypes="cccc"
       inkscape:export-xdpi="95.999969"
       inkscape:export-ydpi="95.999969" />
    <path
       sodipodi:nodetypes="cccc"
       inkscape:connector-curvature="0"
       id="path856"
       d="m -425.22103,131.80816 -11.13428,-17.4845 h 22.26857 z"
       style="fill:#fa9600;fill-opacity:1;stroke:none;stroke-width:0.09510856px;stroke-linecap:butt;stroke-linejoin:miter;stroke-opacity:1"
       inkscape:export-xdpi="95.999969"
       inkscape:export-ydpi="95.999969" />
    <path
       sodipodi:nodetypes="cccc"
       inkscape:connector-curvature="0"
       id="path860"
       d="m -485.92714,154.16655 -11.13428,-17.48449 h 22.26856 z"
       style="fill:#fa9600;fill-opacity:1;stroke:none;stroke-width:0.09510856px;stroke-linecap:butt;stroke-linejoin:miter;stroke-opacity:1"
       inkscape:export-xdpi="95.999969"
       inkscape:export-ydpi="95.999969" />
    <path
       style="fill:#fa9600;fill-opacity:1;stroke:none;stroke-width:0.09510856px;stroke-linecap:butt;stroke-linejoin:miter;stroke-opacity:1"
       d="m -564.08626,167.82544 -11.13428,-17.4845 h 22.26856 z"
       id="path862"
       inkscape:connector-curvature="0"
       sodipodi:nodetypes="cccc"
       inkscape:export-xdpi="95.999969"
       inkscape:export-ydpi="95.999969" />
    <path
       style="fill:#fa9600;fill-opacity:1;stroke:none;stroke-width:0.09510856px;stroke-linecap:butt;stroke-linejoin:miter;stroke-opacity:1"
       d="m -620.23942,204.56342 -11.13428,-17.48448 h 22.26856 z"
       id="path866"
       inkscape:connector-curvature="0"
       sodipodi:nodetypes="cccc"
       inkscape:export-xdpi="95.999969"
       inkscape:export-ydpi="95.999969" />
    <path
       sodipodi:nodetypes="cccc"
       inkscape:connector-curvature="0"
       id="path868"
       d="m -682.46319,232.50981 -11.13428,-17.48449 h 22.26856 z"
       style="fill:#fa9600;fill-opacity:1;stroke:none;stroke-width:0.09510856px;stroke-linecap:butt;stroke-linejoin:miter;stroke-opacity:1"
       inkscape:export-xdpi="95.999969"
       inkscape:export-ydpi="95.999969" />
    <circle
       style="opacity:1;vector-effect:none;fill:#fabd4a;fill-opacity:1;stroke:none;stroke-width:1.28270125;stroke-linecap:butt;stroke-linejoin:miter;stroke-miterlimit:4;stroke-dasharray:none;stroke-dashoffset:0;stroke-opacity:1;paint-order:fill markers stroke"
       id="path870"
       cx="-57.166737"
       cy="6.5200138"
       r="6.4500241"
       inkscape:export-xdpi="95.999969"
       inkscape:export-ydpi="95.999969" />
    <circle
       cy="6.5200138"
       cx="-101.62553"
       id="circle872"
       style="opacity:1;vector-effect:none;fill:#fabd4a;fill-opacity:1;stroke:none;stroke-width:1.28270125;stroke-linecap:butt;stroke-linejoin:miter;stroke-miterlimit:4;stroke-dasharray:none;stroke-dashoffset:0;stroke-opacity:1;paint-order:fill markers stroke"
       r="6.4500241"
       inkscape:export-xdpi="95.999969"
       inkscape:export-ydpi="95.999969" />
    <circle
       style="opacity:1;vector-effect:none;fill:#fabd4a;fill-opacity:1;stroke:none;stroke-width:1.28270125;stroke-linecap:butt;stroke-linejoin:miter;stroke-miterlimit:4;stroke-dasharray:none;stroke-dashoffset:0;stroke-opacity:1;paint-order:fill markers stroke"
       id="circle874"
       cx="-146.08432"
       cy="6.5200138"
       r="6.4500241"
       inkscape:export-xdpi="95.999969"
       inkscape:export-ydpi="95.999969" />
    <circle
       cy="6.5200138"
       cx="-190.54312"
       id="circle876"
       style="opacity:1;vector-effect:none;fill:#fabd4a;fill-opacity:1;stroke:none;stroke-width:1.28270125;stroke-linecap:butt;stroke-linejoin:miter;stroke-miterlimit:4;stroke-dasharray:none;stroke-dashoffset:0;stroke-opacity:1;paint-order:fill markers stroke"
       r="6.4500241"
       inkscape:export-xdpi="95.999969"
       inkscape:export-ydpi="95.999969" />
    <circle
       style="opacity:1;vector-effect:none;fill:#fabd4a;fill-opacity:1;stroke:none;stroke-width:1.28270125;stroke-linecap:butt;stroke-linejoin:miter;stroke-miterlimit:4;stroke-dasharray:none;stroke-dashoffset:0;stroke-opacity:1;paint-order:fill markers stroke"
       id="circle878"
       cx="-235.00188"
       cy="-4.7479882"
       r="6.4500241"
       inkscape:export-xdpi="95.999969"
       inkscape:export-ydpi="95.999969" />
    <circle
       cy="7.0565782"
       cx="-279.46066"
       id="circle880"
       style="opacity:1;vector-effect:none;fill:#fabd4a;fill-opacity:1;stroke:none;stroke-width:1.28270125;stroke-linecap:butt;stroke-linejoin:miter;stroke-miterlimit:4;stroke-dasharray:none;stroke-dashoffset:0;stroke-opacity:1;paint-order:fill markers stroke"
       r="6.4500241"
       inkscape:export-xdpi="95.999969"
       inkscape:export-ydpi="95.999969" />
    <circle
       style="opacity:1;vector-effect:none;fill:#fabd4a;fill-opacity:1;stroke:none;stroke-width:1.28270125;stroke-linecap:butt;stroke-linejoin:miter;stroke-miterlimit:4;stroke-dasharray:none;stroke-dashoffset:0;stroke-opacity:1;paint-order:fill markers stroke"
       id="circle886"
       cx="-323.91946"
       cy="11.885728"
       r="6.4500241"
       inkscape:export-xdpi="95.999969"
       inkscape:export-ydpi="95.999969" />
    <circle
       cy="11.885728"
       cx="-368.37823"
       id="circle888"
       style="opacity:1;vector-effect:none;fill:#fabd4a;fill-opacity:1;stroke:none;stroke-width:1.28270125;stroke-linecap:butt;stroke-linejoin:miter;stroke-miterlimit:4;stroke-dasharray:none;stroke-dashoffset:0;stroke-opacity:1;paint-order:fill markers stroke"
       r="6.4500241"
       inkscape:export-xdpi="95.999969"
       inkscape:export-ydpi="95.999969" />
    <circle
       cy="1.1542999"
       cx="-412.83701"
       id="circle896"
       style="opacity:1;vector-effect:none;fill:#fabd4a;fill-opacity:1;stroke:none;stroke-width:1.28270125;stroke-linecap:butt;stroke-linejoin:miter;stroke-miterlimit:4;stroke-dasharray:none;stroke-dashoffset:0;stroke-opacity:1;paint-order:fill markers stroke"
       r="6.4500241"
       inkscape:export-xdpi="95.999969"
       inkscape:export-ydpi="95.999969" />
    <circle
       style="opacity:1;vector-effect:none;fill:#fabd4a;fill-opacity:1;stroke:none;stroke-width:1.28270125;stroke-linecap:butt;stroke-linejoin:miter;stroke-miterlimit:4;stroke-dasharray:none;stroke-dashoffset:0;stroke-opacity:1;paint-order:fill markers stroke"
       id="circle898"
       cx="-457.29584"
       cy="11.885728"
       r="6.4500241"
       inkscape:export-xdpi="95.999969"
       inkscape:export-ydpi="95.999969" />
    <circle
       cy="1.1542999"
       cx="-501.75455"
       id="circle900"
       style="opacity:1;vector-effect:none;fill:#fabd4a;fill-opacity:1;stroke:none;stroke-width:1.28270125;stroke-linecap:butt;stroke-linejoin:miter;stroke-miterlimit:4;stroke-dasharray:none;stroke-dashoffset:0;stroke-opacity:1;paint-order:fill markers stroke"
       r="6.4500241"
       inkscape:export-xdpi="95.999969"
       inkscape:export-ydpi="95.999969" />
    <circle
       style="opacity:1;vector-effect:none;fill:#fabd4a;fill-opacity:1;stroke:none;stroke-width:1.28270125;stroke-linecap:butt;stroke-linejoin:miter;stroke-miterlimit:4;stroke-dasharray:none;stroke-dashoffset:0;stroke-opacity:1;paint-order:fill markers stroke"
       id="circle902"
       cx="-546.21338"
       cy="-4.2114191"
       r="6.4500241"
       inkscape:export-xdpi="95.999969"
       inkscape:export-ydpi="95.999969" />
    <circle
       cy="-14.942847"
       cx="-590.67218"
       id="circle904"
       style="opacity:1;vector-effect:none;fill:#fabd4a;fill-opacity:1;stroke:none;stroke-width:1.28270125;stroke-linecap:butt;stroke-linejoin:miter;stroke-miterlimit:4;stroke-dasharray:none;stroke-dashoffset:0;stroke-opacity:1;paint-order:fill markers stroke"
       r="6.4500241"
       inkscape:export-xdpi="95.999969"
       inkscape:export-ydpi="95.999969" />
    <circle
       style="opacity:1;vector-effect:none;fill:#fabd4a;fill-opacity:1;stroke:none;stroke-width:1.28270125;stroke-linecap:butt;stroke-linejoin:miter;stroke-miterlimit:4;stroke-dasharray:none;stroke-dashoffset:0;stroke-opacity:1;paint-order:fill markers stroke"
       id="circle906"
       cx="-635.13098"
       cy="12.422293"
       r="6.4500241"
       inkscape:export-xdpi="95.999969"
       inkscape:export-ydpi="95.999969" />
    <g
       transform="matrix(0.02604752,0,0,-0.02604752,-713.73469,25.907992)"
       id="g4"
       style="fill:#fabd4a;fill-opacity:1;stroke:none"
       inkscape:export-xdpi="95.999969"
       inkscape:export-ydpi="95.999969">
      <path
         style="fill:#fabd4a;fill-opacity:1;stroke:none"
         inkscape:connector-curvature="0"
         d="m 924,642 q 0,-13 8.5,-22.5 8.5,-9.5 24.5,-9.5 13,0 26,6.5 13,6.5 23.5,17.5 10.5,11 17,25 6.5,14 6.5,30 0,38 -39,38 -14,0 -26,-8 -12,-8 -21,-20.5 Q 935,686 929.5,671 924,656 924,642 Z m -30,62 q 0,20 -14.5,28.5 -14.5,8.5 -30.5,8.5 -24,0 -47,-29 -22,-28 -22,-53 0,-40 45,-40 28,0 48,33 10,17 15.5,30 5.5,13 5.5,22 z m 1379,115 q 0,-34 -44,-66 76,-129 76,-179 0,-48 -46,-48 -33,0 -86,36.5 Q 2120,599 2058,664 1969,626 1866,593.5 1763,561 1643,533 1801,78 1801,-95 q 0,-178 -137,-178 -128,0 -298,197 -171,198 -325,527 L 870,445 Q 710,440 579,459.5 448,479 355,516 q -93,37 -143,87 -50,50 -47,106 2,36 23.5,71 21.5,35 59.5,65 20,15 44,28.5 24,13.5 52,27.5 55,27 65,27 14,-97 111,-180 99,-84 141,-84 18,0 48,32 30,30 30,46 0,14 -8.5,24 -8.5,10 -32.5,24 -35,20 -65,46 -30,26 -53,57.5 -23,31.5 -38,67.5 -15,36 -19,75 124,77 295,77 -9,54 -13,106 -4,52 -4,105 0,96 15.5,172.5 15.5,76.5 47.5,134.5 63,117 168,117 47,0 101,-44 54,-44 111,-132 57,-88 116.5,-220 59.5,-132 117.5,-309 144,-26 277.5,-52.5 Q 1889,964 2014,937 q 11,12 31,31.5 20,19.5 50,47.5 60,55 105.5,77.5 45.5,22.5 83.5,22.5 52,0 52,-44 0,-26 -23.5,-75.5 Q 2289,947 2243,872 q 30,-27 30,-53 z"
         id="path2" />
    </g>
  </g>
</svg>
